<svg width="83" height="83" viewBox="0 0 83 83" fill="none" xmlns="http://www.w3.org/2000/svg">
<g clip-path="url(#clip0_40_5)">
<circle cx="41.5" cy="41.5" r="41.5" fill="#7A7A7A"/>
<path d="M57.0625 31.125C57.0625 35.2524 55.4229 39.2108 52.5044 42.1294C49.5858 45.0479 45.6274 46.6875 41.5 46.6875C37.3726 46.6875 33.4142 45.0479 30.4957 42.1294C27.5771 39.2108 25.9375 35.2524 25.9375 31.125C25.9375 26.9976 27.5771 23.0392 30.4957 20.1207C33.4142 17.2021 37.3726 15.5625 41.5 15.5625C45.6274 15.5625 49.5858 17.2021 52.5044 20.1207C55.4229 23.0392 57.0625 26.9976 57.0625 31.125Z" fill="#D9D9D9"/>
<path fill-rule="evenodd" clip-rule="evenodd" d="M0 41.5C0 30.4935 4.37231 19.9378 12.1551 12.1551C19.9378 4.37231 30.4935 0 41.5 0C52.5065 0 63.0622 4.37231 70.8449 12.1551C78.6277 19.9378 83 30.4935 83 41.5C83 52.5065 78.6277 63.0622 70.8449 70.8449C63.0622 78.6277 52.5065 83 41.5 83C30.4935 83 19.9378 78.6277 12.1551 70.8449C4.37231 63.0622 0 52.5065 0 41.5ZM41.5 5.1875C34.6617 5.18786 27.9625 7.11913 22.1735 10.759C16.3844 14.3989 11.7408 19.5995 8.77706 25.7621C5.81335 31.9248 4.65 38.7991 5.42093 45.5938C6.19185 52.3884 8.86571 58.8273 13.1348 64.1694C16.8179 58.2349 24.9259 51.875 41.5 51.875C58.0741 51.875 66.1769 58.2297 69.8653 64.1694C74.1343 58.8273 76.8081 52.3884 77.5791 45.5938C78.35 38.7991 77.1867 31.9248 74.2229 25.7621C71.2592 19.5995 66.6156 14.3989 60.8265 10.759C55.0375 7.11913 48.3383 5.18786 41.5 5.1875Z" fill="#D9D9D9"/>
</g>
<defs>
<clipPath id="clip0_40_5">
<rect width="83" height="83" fill="white"/>
</clipPath>
</defs>
</svg>
