<svg width="100" height="100" viewBox="0 0 100 100" fill="none" xmlns="http://www.w3.org/2000/svg">
<g clip-path="url(#clip0_38_4)">
<path d="M42 0C41.4696 0 40.9609 0.210714 40.5858 0.585786C40.2107 0.960859 40 1.46957 40 2V6C40 6.53043 40.2107 7.03914 40.5858 7.41421C40.9609 7.78929 41.4696 8 42 8H45V13.295C23.364 15.785 6.5 34.209 6.5 56.5C6.5 80.483 26.017 100 50 100C73.983 100 93.5 80.483 93.5 56.5C93.5069 48.2913 91.176 40.2504 86.78 33.318L91.018 29.887L92.906 32.219C93.0712 32.4232 93.275 32.5929 93.5058 32.7184C93.7365 32.8438 93.9898 32.9226 94.251 32.9502C94.5122 32.9777 94.7763 32.9536 95.0282 32.8791C95.2801 32.8046 95.5148 32.6812 95.719 32.516L98.829 29.998C99.2407 29.664 99.5029 29.1801 99.5581 28.6529C99.6132 28.1256 99.4567 27.598 99.123 27.186L89.055 14.75C88.8898 14.5458 88.686 14.3761 88.4552 14.2506C88.2245 14.1252 87.9712 14.0464 87.71 14.0188C87.4488 13.9913 87.1847 14.0154 86.9328 14.0899C86.6809 14.1644 86.4462 14.2878 86.242 14.453L83.132 16.971C82.7203 17.305 82.4581 17.7889 82.4029 18.3161C82.3478 18.8434 82.5043 19.371 82.838 19.783L84.727 22.115L80.507 25.529C73.77 18.891 64.883 14.435 55 13.297V8H58C58.5304 8 59.0391 7.78929 59.4142 7.41421C59.7893 7.03914 60 6.53043 60 6V2C60 1.46957 59.7893 0.960859 59.4142 0.585786C59.0391 0.210714 58.5304 0 58 0L42 0ZM50 20C70.2 20 86.5 36.3 86.5 56.5C86.5 76.7 70.2 93 50 93C29.8 93 13.5 76.7 13.5 56.5C13.5 36.3 29.8 20 50 20Z" fill="#0073EA"/>
<rect x="25" y="41" width="49" height="12" rx="2" fill="#0073EA"/>
<rect x="25" y="61" width="49" height="12" rx="2" fill="#0073EA"/>
</g>
<defs>
<clipPath id="clip0_38_4">
<rect width="100" height="100" fill="white"/>
</clipPath>
</defs>
</svg>
